<svg 
 xmlns="http://www.w3.org/2000/svg"
 xmlns:xlink="http://www.w3.org/1999/xlink"
 width="29px" height="13px">
<path fill-rule="evenodd"  opacity="0.502" fill="rgb(61, 57, 53)"
 d="M13.944,9.981 L2.448,0.957 C2.174,0.432 1.540,0.235 1.033,0.521 C0.684,0.716 0.486,1.092 0.486,1.474 C0.486,1.649 0.528,1.825 0.613,1.990 L13.598,12.074 C13.602,12.080 13.608,12.084 13.612,12.090 C13.625,12.112 13.646,12.128 13.659,12.147 C13.667,12.162 13.679,12.172 13.690,12.185 C13.734,12.247 13.773,12.307 13.827,12.357 C13.873,12.398 13.921,12.429 13.974,12.460 C13.994,12.474 14.001,12.499 14.024,12.512 C14.038,12.519 14.055,12.518 14.069,12.526 C14.103,12.545 14.134,12.554 14.170,12.567 C14.218,12.589 14.268,12.598 14.322,12.608 C14.372,12.619 14.420,12.630 14.468,12.634 C14.485,12.634 14.499,12.645 14.516,12.645 C14.533,12.645 14.547,12.638 14.564,12.634 C14.614,12.633 14.660,12.619 14.711,12.608 C14.762,12.598 14.815,12.589 14.865,12.570 C14.901,12.557 14.933,12.545 14.967,12.526 C14.981,12.519 14.996,12.519 15.011,12.513 C15.038,12.499 15.055,12.470 15.082,12.453 C15.124,12.424 15.165,12.398 15.203,12.360 C15.232,12.333 15.259,12.305 15.286,12.274 C15.322,12.234 15.346,12.189 15.376,12.145 C15.393,12.119 15.419,12.101 15.434,12.071 L28.362,1.957 C28.636,1.434 28.446,0.773 27.937,0.488 C27.430,0.205 26.798,0.403 26.524,0.931 L15.056,9.981 "/>
</svg>