<svg xmlns="http://www.w3.org/2000/svg" width="57" height="9.53" viewBox="0 0 57 9.53">
  <defs>
    <style>
      .cls-1 {
        fill: #bc204b;
        fill-rule: evenodd;
      }
    </style>
  </defs>
  <path id="_-e-arrow2" data-name="-e-arrow2" class="cls-1" d="M2559.98,2858.75c-2,.54-7.84,2.23-8.33,1.93-0.3-.17-0.47-2.03-0.51-4.05-4.14.04-12.59,0.14-18.41,0.23-2.41.04-5.13,0.25-7.94,0.26-3.6,0-7.32.29-10.75,0.29h-0.03a1.208,1.208,0,0,1-1-1.18,1.1,1.1,0,0,1,.98-1.12c3.45-.08,7.19-0.14,10.8-0.15,2.8,0,5.5-.03,7.91-0.07,5.83-.1,14.3-0.2,18.43-0.25a9.558,9.558,0,0,1,.4-3.41c0.33-.26,5.98,1.01,7.8,1.38s10.67,2.41,10.67,2.93C2570,2856.13,2561.98,2858.2,2559.98,2858.75Z" transform="translate(-2513 -2851.19)"/>
</svg>
