<svg 
 xmlns="http://www.w3.org/2000/svg"
 xmlns:xlink="http://www.w3.org/1999/xlink"
 width="26px" height="20px">
<path fill-rule="evenodd"  opacity="0.702" fill="rgb(61, 57, 53)"
 d="M24.741,1.833 C24.739,1.833 24.738,1.833 24.736,1.833 C24.655,1.832 16.849,1.787 13.434,1.850 C12.539,1.867 11.190,1.873 9.714,1.873 C5.936,1.873 1.313,1.833 1.249,1.833 C0.738,1.828 0.328,1.418 0.332,0.916 C0.337,0.416 0.749,0.015 1.257,0.015 C1.260,0.015 1.262,0.015 1.265,0.015 C1.354,0.015 10.240,0.093 13.400,0.032 C16.836,-0.030 24.669,0.014 24.747,0.015 C25.258,0.018 25.668,0.427 25.666,0.929 C25.663,1.429 25.250,1.833 24.741,1.833 ZM12.939,9.037 C16.480,9.151 24.012,9.095 24.088,9.094 C24.090,9.094 24.092,9.094 24.094,9.094 C24.593,9.094 24.999,9.510 25.003,10.026 C25.006,10.544 24.603,10.967 24.101,10.971 C24.063,10.972 22.188,10.986 19.872,10.986 C17.510,10.986 14.688,10.971 12.882,10.914 C9.786,10.815 1.002,10.913 0.913,10.914 C0.438,10.923 0.000,10.504 -0.005,9.986 C-0.010,9.467 0.392,9.043 0.894,9.037 C1.257,9.033 9.802,8.937 12.939,9.037 ZM1.257,18.142 C1.260,18.142 1.262,18.142 1.265,18.142 C1.354,18.144 10.241,18.220 13.400,18.160 C16.837,18.095 24.669,18.143 24.747,18.142 C25.258,18.145 25.668,18.555 25.666,19.057 C25.663,19.558 25.250,19.961 24.741,19.961 C24.739,19.961 24.738,19.961 24.736,19.961 C24.656,19.960 16.850,19.914 13.434,19.979 C12.544,19.995 11.205,20.001 9.738,20.001 C5.956,20.001 1.314,19.962 1.249,19.961 C0.738,19.956 0.328,19.546 0.332,19.044 C0.337,18.545 0.749,18.142 1.257,18.142 Z"/>
</svg>