<svg xmlns="http://www.w3.org/2000/svg" width="53.938" height="54" viewBox="0 0 53.938 54">
  <defs>
    <style>
      .cls-1 {
        fill: #e06287;
        fill-rule: evenodd;
      }
    </style>
  </defs>
  <path id="_-e-css" data-name="-e-css" class="cls-1" d="M845.726,1750.35a1,1,0,0,0-.757-0.35h-51.94a1,1,0,0,0-.987,1.15l6.775,45.22a0.994,0.994,0,0,0,.655.79l19.2,6.78a0.951,0.951,0,0,0,.665,0l19.2-6.78a1,1,0,0,0,.655-0.79l6.775-45.22A1,1,0,0,0,845.726,1750.35Zm-8.429,45.12-18.3,6.47-18.3-6.47L794.189,1752H843.81Zm-28.234-31.26H825.33l-14.975,8.99a1.01,1.01,0,0,0-.448,1.13,1,1,0,0,0,.963.73h15.107l-1.552,10.88L819,1787.49l-5.442-1.56-0.8-4.8a1,1,0,0,0-1.97.33l0.9,5.43a0.983,0.983,0,0,0,.71.79l6.324,1.81a0.962,0.962,0,0,0,.549,0l6.322-1.81a0.988,0.988,0,0,0,.715-0.82l1.807-12.66a1.006,1.006,0,0,0-.989-1.14H814.476l14.974-8.99a1,1,0,0,0-.514-1.86H809.063A1,1,0,0,0,809.063,1764.21Z" transform="translate(-792.031 -1750)"/>
</svg>
