<svg xmlns="http://www.w3.org/2000/svg" width="60" height="60" viewBox="0 0 60 60">
  <defs>
    <style>
      .cls-1 {
        fill: #e06287;
        fill-rule: evenodd;
      }
    </style>
  </defs>
  <path id="_-e-drupal" data-name="-e-drupal" class="cls-1" d="M2330,1292a30,30,0,1,0,30,30A30.037,30.037,0,0,0,2330,1292Zm0,58a28,28,0,1,1,28-28A28.031,28.031,0,0,1,2330,1350Zm5.13-42.99c-2.33-1.56-4.33-2.91-4.78-4.23a1.007,1.007,0,0,0-1.92.07c-0.38,1.42-2.49,3.14-4.73,4.96-4.44,3.59-9.96,8.07-9.96,15.35a16.26,16.26,0,0,0,32.52,0C2346.26,1314.5,2339.82,1310.17,2335.13,1307.01Zm-5.13,30.4a14.271,14.271,0,0,1-14.26-14.25c0-6.33,5.11-10.47,9.22-13.8a26.17,26.17,0,0,0,4.52-4.24,23.5,23.5,0,0,0,4.53,3.55c4.57,3.07,10.25,6.89,10.25,14.49A14.271,14.271,0,0,1,2330,1337.41Zm6.12-17.94a8.885,8.885,0,0,1-2.66,1.22,7.343,7.343,0,0,1-2.16-1.17c-1.47-.98-3.3-2.2-5.19-2.2a5.98,5.98,0,0,0-6,6.08,4.825,4.825,0,0,0,5.21,4.98c1.6,0,3.81-1.39,5.75-2.62a17.851,17.851,0,0,1,2.37-1.35,11.966,11.966,0,0,1,1.7,1.41c1.39,1.29,2.69,2.51,3.98,2.29a0.982,0.982,0,0,0,.43-0.19,7.634,7.634,0,0,0,2.42-8.07c-0.58-1.72-1.65-1.91-2.08-1.91A8.736,8.736,0,0,0,2336.12,1319.47Zm-6.11,4.6c-1.55.98-3.67,2.31-4.69,2.31-2.98,0-3.21-2.28-3.21-2.98a4,4,0,0,1,4-4.08c1.28,0,2.77.99,4.09,1.86a10.667,10.667,0,0,0,2.48,1.38A17.174,17.174,0,0,0,2330.01,1324.07Zm8.63,2.01a11.939,11.939,0,0,1-2.14-1.72,9.6,9.6,0,0,0-2.27-1.78,13.126,13.126,0,0,0,2.89-1.38,10.069,10.069,0,0,1,2.68-1.25,3.219,3.219,0,0,1,.48,1.92A5.629,5.629,0,0,1,2338.64,1326.08Zm-7.52,4.71a0.987,0.987,0,0,0,.84-0.46,2.087,2.087,0,0,1,1.82-1.08,1.338,1.338,0,0,1,.84.79,1,1,0,1,0,1.73-1,3.047,3.047,0,0,0-2.57-1.79,4.089,4.089,0,0,0-3.51,2,1,1,0,0,0,.31,1.38A0.972,0.972,0,0,0,2331.12,1330.79Zm4.38,1.01a5.543,5.543,0,0,1-6.66-.05,1,1,0,0,0-1.2,1.6,7.433,7.433,0,0,0,8.98.1A1,1,0,1,0,2335.5,1331.8Z" transform="translate(-2300 -1292)"/>
</svg>
