<svg xmlns="http://www.w3.org/2000/svg" width="53.938" height="54" viewBox="0 0 53.938 54">
  <defs>
    <style>
      .cls-1 {
        fill: #e06287;
        fill-rule: evenodd;
      }
    </style>
  </defs>
  <path id="_-e-javascript" data-name="-e-javascript" class="cls-1" d="M919.725,1750.35a1,1,0,0,0-.757-0.35h-51.94a1,1,0,0,0-.988,1.15l6.775,45.22a1,1,0,0,0,.655.79l19.195,6.78a0.954,0.954,0,0,0,.666,0l19.2-6.78a1,1,0,0,0,.655-0.79l6.774-45.22A1,1,0,0,0,919.725,1750.35Zm-8.429,45.12-18.3,6.47-18.3-6.47L868.188,1752h49.621Zm-28.2-31.26H901.8l-1.664,9.71-1.715,12.02L893,1787.49l-5.442-1.56-0.8-4.8a1,1,0,0,0-1.971.33l0.9,5.43a0.983,0.983,0,0,0,.71.79l6.324,1.81a0.854,0.854,0,0,0,.274.04,0.864,0.864,0,0,0,.275-0.04l6.322-1.81a0.989,0.989,0,0,0,.715-0.82l1.8-12.63,1.859-10.85a0.994,0.994,0,0,0-.984-1.17H883.093A1,1,0,0,0,883.093,1764.21Z" transform="translate(-866.031 -1750)"/>
</svg>
