<svg xmlns="http://www.w3.org/2000/svg" width="19.21" height="30" viewBox="0 0 19.21 30">
  <defs>
    <style>
      .cls-1 {
        fill: #e06287;
        fill-rule: evenodd;
      }
    </style>
  </defs>
  <path id="_-e-location" data-name="-e-location" class="cls-1" d="M1889.9,1306.56a8.9,8.9,0,0,0-6.86,2.09,9.523,9.523,0,0,0-3.14,6.91c-0.3,6.8,3.81,10.39,6.98,16.27,0.46,0.85.91,1.69,1.34,2.5a4.2,4.2,0,0,0,.87,1.38,0.931,0.931,0,0,0,.43.66,0.909,0.909,0,0,0,.33.13,0.944,0.944,0,0,0,.96-0.44c0.45-.75.26-0.45,0.74-1.23,3.69-5.98,7.36-9.68,7.56-16.93C1899.28,1311.89,1895.41,1307.13,1889.9,1306.56Zm0.08,27.24a1.1,1.1,0,0,0-.11-0.35c-0.43-.83-0.88-1.67-1.35-2.53-3.05-5.66-7.03-9-6.76-15.28a7.735,7.735,0,0,1,2.5-5.56,7.083,7.083,0,0,1,5.45-1.63,5.4,5.4,0,0,1,.58.08c4.19,0.72,7.08,4.55,6.95,9.32C1897.05,1324.57,1893.54,1328.03,1889.98,1333.8Zm2.24-19.66a2.28,2.28,0,0,0-1.68-1.95,4.761,4.761,0,0,0-4.53,1.68,2.976,2.976,0,0,0-.5,3.29,4.756,4.756,0,0,0,3.1,2.19,4.1,4.1,0,0,0,.48.1,3.783,3.783,0,0,0,2.87-.48,2.288,2.288,0,0,0,.99-1.69,3.83,3.83,0,0,0-.88-2.43A1.027,1.027,0,0,0,1892.22,1314.14Zm-1.43,3.18a2.207,2.207,0,0,1-1.69.07,2.918,2.918,0,0,1-1.8-1.11,0.93,0.93,0,0,1,.24-1.11,3.214,3.214,0,0,1,1.32-.9l0.23,0.23c0.52,0.53,1.92,1.94,1.87,2.61A0.3,0.3,0,0,1,1890.79,1317.32Z" transform="translate(-1879.91 -1306.5)"/>
</svg>
