<svg xmlns="http://www.w3.org/2000/svg" width="60" height="60" viewBox="0 0 60 60">
  <defs>
    <style>
      .cls-1 {
        fill: #e06287;
        fill-rule: evenodd;
      }
    </style>
  </defs>
  <path id="_-e-php" data-name="-e-php" class="cls-1" d="M890,1292a30,30,0,1,0,30,30A30.035,30.035,0,0,0,890,1292Zm0,58a28,28,0,1,1,28-28A28.031,28.031,0,0,1,890,1350Zm-12.807-36.71H874a1,1,0,0,0-1,1v15.42a1,1,0,0,0,2,0V1323h2.193c3.812,0,5.519-2.44,5.519-4.85S881.005,1313.29,877.193,1313.29Zm0,7.71H875v-5.71h2.193c2.6,0,3.519,1.47,3.519,2.86S879.788,1321,877.193,1321Zm26.288-7.71h-3.193a1,1,0,0,0-1,1v15.42a1,1,0,0,0,2,0V1323h2.193c3.812,0,5.519-2.44,5.519-4.85S907.293,1313.29,903.481,1313.29Zm0,7.71h-2.193v-5.71h2.193c2.6,0,3.519,1.47,3.519,2.86S906.076,1321,903.481,1321Zm-8.916-7.71a1,1,0,0,0-1,1V1321h-5.712v-6.71a1,1,0,0,0-2,0v15.42a1,1,0,0,0,2,0V1323h5.712v6.71a1,1,0,0,0,2,0v-15.42A1,1,0,0,0,894.565,1313.29Z" transform="translate(-860 -1292)"/>
</svg>
