<svg 
 xmlns="http://www.w3.org/2000/svg"
 xmlns:xlink="http://www.w3.org/1999/xlink"
 width="57px" height="58px">
<path fill-rule="evenodd"  fill="rgb(188, 32, 75)"
 d="M54.187,56.913 C46.625,49.668 49.191,51.932 42.938,44.481 C41.164,46.099 39.086,47.500 36.670,48.600 C30.602,51.363 24.208,50.977 17.964,49.101 C10.372,46.821 5.739,40.846 2.292,33.972 C-3.518,22.387 4.451,7.153 15.757,2.548 C22.802,-0.321 30.559,-0.931 37.133,3.346 C42.058,6.550 47.252,11.810 48.426,17.842 C48.694,17.976 48.918,18.216 49.028,18.586 C51.660,27.474 50.191,36.400 44.675,42.702 C50.948,50.176 48.373,47.902 55.941,55.154 C57.100,56.263 55.344,58.021 54.187,56.913 ZM46.999,20.647 C46.569,20.488 46.214,20.120 46.178,19.538 C45.786,13.332 39.868,8.088 35.018,4.933 C28.993,1.013 20.778,2.678 14.766,5.766 C9.743,8.347 6.184,12.991 4.300,18.241 C2.027,24.573 2.886,30.440 6.314,36.116 C9.893,42.046 14.157,45.571 20.871,47.334 C26.550,48.825 32.095,48.190 37.319,45.535 C46.628,40.803 49.328,30.264 46.999,20.647 ZM15.833,37.366 C16.688,38.728 14.542,39.975 13.692,38.622 C8.894,30.975 8.028,20.955 14.299,13.891 C15.366,12.689 17.113,14.455 16.053,15.649 C10.521,21.882 11.669,30.728 15.833,37.366 Z"/>
</svg>