<svg xmlns="http://www.w3.org/2000/svg" width="60" height="60" viewBox="0 0 60 60">
  <defs>
    <style>
      .cls-1 {
        fill: #e06287;
        fill-rule: evenodd;
      }
    </style>
  </defs>
  <path id="_-e-wordpress" data-name="-e-wordpress" class="cls-1" d="M2490,1292a30,30,0,1,0,30,30A30.037,30.037,0,0,0,2490,1292Zm0,58a28,28,0,1,1,28-28A28.031,28.031,0,0,1,2490,1350Zm14.99-42.94a3.8,3.8,0,0,0-5.2.67,4.971,4.971,0,0,0,.18,5.68q0.33,0.42.72,0.87a14.42,14.42,0,0,1,1.98,2.78,12.713,12.713,0,0,1,.64,6.66c-0.42,1.17-.86,2.28-1.28,3.27-0.34.8-.81,1.78-1.35,2.81-0.4-.91-0.86-1.99-1.12-2.69-0.34-.92-1.12-2.71-1.75-4.15-0.35-.79-0.66-1.5-0.83-1.9-0.18-.43-0.45-1.06-0.75-1.73-0.52-1.19-1.17-2.67-1.34-3.24a23.276,23.276,0,0,0-1.09-2.49,0.886,0.886,0,0,0-.08-0.17l0.81-.01a1,1,0,0,0-.01-2h-0.01l-10.56.11a1,1,0,0,0,.01,2h0.01l0.76-.01c0.52,1.13,1.04,2.38,1.47,3.53,0.53,1.41,1.38,3.52,1.99,4.82,0.22,0.48.51,1.14,0.8,1.85-0.34.67-.76,1.55-1.14,2.36-0.28.61-.55,1.18-0.75,1.59a1.983,1.983,0,0,1-.11.2c-0.67-1.52-1.45-3.24-2.49-5.52-0.68-1.51-1.86-4.27-2.79-6.62-0.33-.83-0.65-1.61-0.92-2.24h0.24a1,1,0,0,0-.01-2h0l-10.73.03a1,1,0,0,0,0,2h0.74c0.78,1.61,2.19,4.57,2.46,5.27,0.41,1.06.91,2.16,1.39,3.23,0.58,1.27,1.18,2.58,1.61,3.79,0.24,0.68.79,1.96,1.37,3.32,0.44,1.03.89,2.08,1.21,2.88,0.31,0.78.62,1.57,0.91,2.32,1.52,3.99,1.88,4.83,2.88,4.83,0.91,0,1.36-.88,2.63-3.66,0.23-.49.44-0.95,0.61-1.29,0.37-.74.89-1.8,1.41-2.86,0.51-1.04,1.02-2.07,1.38-2.79,0.2-.41.48-1,0.77-1.63,0.12-.24.23-0.48,0.35-0.73,0.21,0.54.41,1.03,0.58,1.42s0.38,0.9.62,1.44c0.58,1.34,1.3,3,1.71,4.1,2.47,6.51,2.73,6.51,3.5,6.51s1.04-.46,2.6-3.04c0.34-.56.71-1.18,1.11-1.83a55.422,55.422,0,0,0,3.74-7.03c0.41-.97.85-2.06,1.27-3.21a1.427,1.427,0,0,0,.08-0.22c0-.02.01-0.03,0.01-0.05a32.039,32.039,0,0,0,2.02-8.59C2507.47,1311.17,2506.71,1308.27,2504.99,1307.06Zm-24.46,23.24c-0.26-.62-0.54-1.29-0.83-1.95-0.15-.35-0.29-0.69-0.44-1.02,0.27-.51.53-0.97,0.83-1.47,0.31-.54.65-1.12,1.06-1.88l0.7-1.3c0.12-.21.23-0.42,0.34-0.61,0.18,0.41.35,0.79,0.49,1.1,0.3,0.66.57,1.27,0.84,1.85-0.3.66-1.02,1.92-1.63,2.97-0.29.51-.58,0.99-0.85,1.44C2480.86,1329.73,2480.7,1330.01,2480.53,1330.3Zm-3.57-8.55c0.27-.53.52-0.95,0.79-1.42,0.29-.49.61-1.03,1.01-1.79,0.35-.64.73-1.31,1.07-1.92a0.351,0.351,0,0,1,.05-0.08c0.4,1.02.85,2.12,1.29,3.15-0.22.46-.63,1.22-1.08,2.04l-0.7,1.31c-0.39.73-.72,1.29-1.03,1.8a1.091,1.091,0,0,1-.06.11C2477.92,1323.9,2477.44,1322.82,2476.96,1321.75Zm-3.71-8.24,5.37-.01c0.08,0.19.18,0.41,0.28,0.66-0.19.37-.49,0.91-0.82,1.48-0.34.62-.73,1.3-1.08,1.96-0.39.73-.69,1.25-0.97,1.72l-0.09.15c-0.21-.47-0.41-0.94-0.58-1.4C2475.09,1317.38,2473.99,1315.06,2473.25,1313.51Zm11.06,19.8c-0.18.36-.4,0.84-0.64,1.36-0.2.44-.49,1.08-0.77,1.64-0.32-.77-0.71-1.8-1.06-2.69-0.11-.31-0.24-0.62-0.36-0.94,0.37-.7.79-1.41,1.27-2.22,0.28-.46.57-0.94,0.87-1.46,0.38-.66.69-1.2,0.95-1.66,0.47,1.05.88,1.97,1.27,2.86-0.04.09-.08,0.18-0.13,0.27C2485.2,1331.52,2484.68,1332.58,2484.31,1333.31Zm14.13,0.44c-0.41.65-.79,1.28-1.13,1.85-0.26.42-.52,0.86-0.76,1.24-0.4-.92-1-2.38-1.76-4.39-0.43-1.14-1.16-2.82-1.75-4.18-0.23-.54-0.44-1.04-0.61-1.43-0.21-.5-0.48-1.16-0.77-1.87-0.56-1.39-1.2-2.97-1.66-3.95-0.56-1.2-1.39-3.25-1.92-4.67-0.35-.92-0.75-1.91-1.17-2.85l4.61-.05c0.12,0.26.27,0.58,0.48,1.01,0.37,0.78.83,1.75,0.98,2.21,0.2,0.69.82,2.1,1.42,3.46,0.29,0.66.56,1.27,0.73,1.69s0.49,1.13.85,1.95c0.62,1.41,1.39,3.16,1.71,4.03,0.45,1.22,1.41,3.38,1.78,4.21C2499.13,1332.6,2498.78,1333.19,2498.44,1333.75Zm6.81-18.15a17.268,17.268,0,0,1-.25,2.16,11.064,11.064,0,0,0-.51-1.52,15.119,15.119,0,0,0-2.27-3.24q-0.36-.435-0.69-0.84a2.973,2.973,0,0,1-.11-3.26,1.418,1.418,0,0,1,1.22-.58,2.188,2.188,0,0,1,1.2.37C2504.35,1309.05,2505.5,1310.44,2505.25,1315.6Z" transform="translate(-2460 -1292)"/>
</svg>
